# xmcd CD database file
#
# Track frame offsets:
#	150
#	19575
#	40275
#
# Disc length: 796 seconds
#
# Revision: 1
# Processed by: cddbd v1.5.1PL0 Copyright (c) Steve Scherf et al.
# Submitted via: freeDBTagger 0.5
#
DISCID=1a031a03
DTITLE=ポルノグラフィティ - 愛が呼ぶほうへ
DYEAR=2003
DGENRE=blues
TTITLE0=愛が呼ぶほうへ
TTITLE1=夕陽と星空と僕
TTITLE2=Hard Days，Holy Night
EXTD=
EXTT0=
EXTT1=
EXTT2=
PLAYORDER=
